<svg xmlns="http://www.w3.org/2000/svg" width="16" height="16" fill="none" viewBox="0 0 24 24"><path stroke="#CED0D6" stroke-linecap="round" stroke-linejoin="round" stroke-width="2" d="M12 21V7"/><path stroke="#CED0D6" stroke-linecap="round" stroke-linejoin="round" stroke-width="2" d="m16 12 2 2 4-4"/><path stroke="#CED0D6" stroke-linecap="round" stroke-linejoin="round" stroke-width="2" d="M22 6V4a1 1 0 0 0-1-1h-5a4 4 0 0 0-4 4 4 4 0 0 0-4-4H3a1 1 0 0 0-1 1v13a1 1 0 0 0 1 1h6a3 3 0 0 1 3 3 3 3 0 0 1 3-3h6a1 1 0 0 0 1-1v-1.3"/></svg>