<svg xmlns="http://www.w3.org/2000/svg" width="40" height="40" fill="none" viewBox="0 0 40 40"><mask id="mask0_5436_78917" width="32" height="32" x="4" y="4" maskUnits="userSpaceOnUse" style="mask-type:alpha"><path fill="#000" d="M33.0017 34.7292C34.7884 36.1587 37.4682 35.2056 35.0115 32.5854C27.6419 24.9626 29.2053 4 20.049 4C10.8927 4 12.456 24.9626 5.08629 32.5854C2.40641 35.4438 5.3096 36.1587 7.09621 34.7292C14.0192 29.7269 13.5726 20.913 20.049 20.913C26.5253 20.913 26.0787 29.7269 33.0017 34.7292Z"/></mask><g mask="url(#mask0_5436_78917)"><g filter="url(#filter0_f_5436_78917)"><path fill="#FFE432" d="M2.6428 -3.09688C2.0994 2.00961 6.22486 6.70203 11.8573 7.38397C17.4897 8.06591 22.4962 4.47909 23.0395 -0.627401C23.5829 -5.73389 19.4575 -10.4263 13.8251 -11.1082C8.19268 -11.7902 3.1862 -8.20337 2.6428 -3.09688Z"/></g><g filter="url(#filter1_f_5436_78917)"><path fill="#FC413D" d="M24.359 13.5949C25.7702 20.0758 31.9478 24.0825 38.1572 22.5441C44.3666 21.0058 48.2563 14.5049 46.8451 8.0241C45.4339 1.54324 39.2563 -2.46345 33.0469 -0.925119C26.8375 0.613209 22.9479 7.11405 24.359 13.5949Z"/></g><g filter="url(#filter2_f_5436_78917)"><path fill="#00B95C" d="M-12.5892 17.9443C-10.8061 24.6327 -2.77556 28.0574 5.34752 25.5933C13.4706 23.1294 18.6101 15.7099 16.827 9.02145C15.0439 2.33301 7.0133 -1.09159 -1.10977 1.3724C-9.23284 3.83637 -14.3724 11.2559 -12.5892 17.9443Z"/></g><g filter="url(#filter3_f_5436_78917)"><path fill="#00B95C" d="M-12.5892 17.9443C-10.8061 24.6327 -2.77556 28.0574 5.34752 25.5933C13.4706 23.1294 18.6101 15.7099 16.827 9.02145C15.0439 2.33301 7.0133 -1.09159 -1.10977 1.3724C-9.23284 3.83637 -14.3724 11.2559 -12.5892 17.9443Z"/></g><g filter="url(#filter4_f_5436_78917)"><path fill="#00B95C" d="M-6.1442 23.4854C-1.67415 28.3554 6.02429 28.048 11.0507 22.7989C16.0772 17.5497 16.5282 9.34639 12.0581 4.47628C7.58808 -0.39381 -0.110356 -0.0864739 -5.13679 5.16274C-10.1632 10.412 -10.6143 18.6153 -6.1442 23.4854Z"/></g><g filter="url(#filter5_f_5436_78917)"><path fill="#3186FF" d="M17.2432 41.8532C18.6312 48.2281 24.4218 52.24 30.1768 50.8142C35.9317 49.3883 39.4718 43.0649 38.0837 36.6901C36.6958 30.3153 30.9053 26.3034 25.1501 27.7291C19.3952 29.155 15.8551 35.4784 17.2432 41.8532Z"/></g><g filter="url(#filter6_f_5436_78917)"><path fill="#FBBC04" d="M7.43056 -9.06427C4.52402 -2.15801 7.70398 6.09157 14.5332 9.36164C21.3624 12.6317 29.2548 9.68399 32.1612 2.77772C35.0679 -4.12855 31.8879 -12.3781 25.0588 -15.6482C18.2295 -18.9183 10.3371 -15.9705 7.43056 -9.06427Z"/></g><g filter="url(#filter7_f_5436_78917)"><path fill="#3186FF" d="M-0.355758 57.5976C-7.3922 54.6515 4.6329 30.4094 7.6231 22.2847C10.6134 14.1599 18.7416 9.96211 25.778 12.9086C32.8145 15.855 41.1549 32.0836 38.1644 40.2085C35.1742 48.3331 6.6807 60.544 -0.355758 57.5976Z"/></g><g filter="url(#filter8_f_5436_78917)"><path fill="#749BFF" d="M42.2801 27.4246C40.3961 29.7697 35.48 28.5738 31.2997 24.7533C27.1193 20.9328 25.2575 15.9345 27.1413 13.5892C29.0251 11.244 33.9411 12.4399 38.1215 16.2604C42.3019 20.0809 44.1638 25.0792 42.2801 27.4246Z"/></g><g filter="url(#filter9_f_5436_78917)"><path fill="#FC413D" d="M28.2171 15.4855C35.9652 21.076 44.8873 21.4433 48.1454 16.3058C51.4034 11.1683 47.7636 2.47155 40.0155 -3.11898C32.2675 -8.7095 23.3454 -9.07676 20.0874 -3.93929C16.8293 1.19821 20.4691 9.89496 28.2171 15.4855Z"/></g><g filter="url(#filter10_f_5436_78917)"><path fill="#FFEE48" d="M2.78038 6.39313C0.860867 11.3323 1.48778 16.3015 4.18063 17.4922C6.87347 18.6829 10.6125 15.6442 12.5321 10.7051C14.4516 5.76593 13.8246 0.796692 11.1318 -0.394021C8.43895 -1.58473 4.69989 1.45397 2.78038 6.39313Z"/></g></g><defs><filter id="filter0_f_5436_78917" width="25.634" height="23.799" x=".024" y="-13.762" color-interpolation-filters="sRGB" filterUnits="userSpaceOnUse"><feFlood flood-opacity="0" result="BackgroundImageFix"/><feBlend in="SourceGraphic" in2="BackgroundImageFix" mode="normal" result="shape"/><feGaussianBlur result="effect1_foregroundBlur_5436_78917" stdDeviation="1.285"/></filter><filter id="filter1_f_5436_78917" width="47.919" height="48.981" x="11.643" y="-13.681" color-interpolation-filters="sRGB" filterUnits="userSpaceOnUse"><feFlood flood-opacity="0" result="BackgroundImageFix"/><feBlend in="SourceGraphic" in2="BackgroundImageFix" mode="normal" result="shape"/><feGaussianBlur result="effect1_foregroundBlur_5436_78917" stdDeviation="6.214"/></filter><filter id="filter2_f_5436_78917" width="51.252" height="46.948" x="-23.507" y="-9.991" color-interpolation-filters="sRGB" filterUnits="userSpaceOnUse"><feFlood flood-opacity="0" result="BackgroundImageFix"/><feBlend in="SourceGraphic" in2="BackgroundImageFix" mode="normal" result="shape"/><feGaussianBlur result="effect1_foregroundBlur_5436_78917" stdDeviation="5.282"/></filter><filter id="filter3_f_5436_78917" width="51.252" height="46.948" x="-23.507" y="-9.991" color-interpolation-filters="sRGB" filterUnits="userSpaceOnUse"><feFlood flood-opacity="0" result="BackgroundImageFix"/><feBlend in="SourceGraphic" in2="BackgroundImageFix" mode="normal" result="shape"/><feGaussianBlur result="effect1_foregroundBlur_5436_78917" stdDeviation="5.282"/></filter><filter id="filter4_f_5436_78917" width="45.488" height="47.059" x="-19.787" y="-9.549" color-interpolation-filters="sRGB" filterUnits="userSpaceOnUse"><feFlood flood-opacity="0" result="BackgroundImageFix"/><feBlend in="SourceGraphic" in2="BackgroundImageFix" mode="normal" result="shape"/><feGaussianBlur result="effect1_foregroundBlur_5436_78917" stdDeviation="5.282"/></filter><filter id="filter5_f_5436_78917" width="41.521" height="43.738" x="6.903" y="17.402" color-interpolation-filters="sRGB" filterUnits="userSpaceOnUse"><feFlood flood-opacity="0" result="BackgroundImageFix"/><feBlend in="SourceGraphic" in2="BackgroundImageFix" mode="normal" result="shape"/><feGaussianBlur result="effect1_foregroundBlur_5436_78917" stdDeviation="5.02"/></filter><filter id="filter6_f_5436_78917" width="45.081" height="45.875" x="-2.745" y="-26.081" color-interpolation-filters="sRGB" filterUnits="userSpaceOnUse"><feFlood flood-opacity="0" result="BackgroundImageFix"/><feBlend in="SourceGraphic" in2="BackgroundImageFix" mode="normal" result="shape"/><feGaussianBlur result="effect1_foregroundBlur_5436_78917" stdDeviation="4.549"/></filter><filter id="filter7_f_5436_78917" width="57.571" height="62.33" x="-10.656" y="3.842" color-interpolation-filters="sRGB" filterUnits="userSpaceOnUse"><feFlood flood-opacity="0" result="BackgroundImageFix"/><feBlend in="SourceGraphic" in2="BackgroundImageFix" mode="normal" result="shape"/><feGaussianBlur result="effect1_foregroundBlur_5436_78917" stdDeviation="4.063"/></filter><filter id="filter8_f_5436_78917" width="31.15" height="30.777" x="19.136" y="5.118" color-interpolation-filters="sRGB" filterUnits="userSpaceOnUse"><feFlood flood-opacity="0" result="BackgroundImageFix"/><feBlend in="SourceGraphic" in2="BackgroundImageFix" mode="normal" result="shape"/><feGaussianBlur result="effect1_foregroundBlur_5436_78917" stdDeviation="3.635"/></filter><filter id="filter9_f_5436_78917" width="42.727" height="39.777" x="12.753" y="-13.705" color-interpolation-filters="sRGB" filterUnits="userSpaceOnUse"><feFlood flood-opacity="0" result="BackgroundImageFix"/><feBlend in="SourceGraphic" in2="BackgroundImageFix" mode="normal" result="shape"/><feGaussianBlur result="effect1_foregroundBlur_5436_78917" stdDeviation="3.07"/></filter><filter id="filter10_f_5436_78917" width="27.177" height="33.604" x="-5.932" y="-8.253" color-interpolation-filters="sRGB" filterUnits="userSpaceOnUse"><feFlood flood-opacity="0" result="BackgroundImageFix"/><feBlend in="SourceGraphic" in2="BackgroundImageFix" mode="normal" result="shape"/><feGaussianBlur result="effect1_foregroundBlur_5436_78917" stdDeviation="3.8"/></filter></defs></svg>