<svg xmlns="http://www.w3.org/2000/svg" id="Layer_1" version="1.1" viewBox="0 0 32 32"><rect width="32" height="32" fill="khaki"/><g fill="#000"><path d="M23,26v-2h3v-5l-2-2h-4v2h-3v5l2,2h4ZM20,20h3v3h-3v-3Z"/><rect width="3" height="3" x="12" y="17"/><polygon points="26 12 23 12 23 9 20 6 17 6 17 9 20 9 20 12 17 12 17 15 26 15 26 12"/><path d="M0,0v32h32V0H0ZM29,29H3V3h26v26Z"/><polygon points="15 26 15 23 9 23 9 17 6 17 6 23.188 8.813 26 15 26"/><rect width="3" height="3" x="12" y="6"/><polygon points="9 12 12 12 12 15 15 15 15 12 12 9 9 9 9 6 6 6 6 15 9 15 9 12"/></g></svg>